PathFileType	4	(X/Y/Z)	TVC_41_BWA_04_walk_RCNL2025.trc
DataRate	CameraRate	NumFrames	NumMarkers	Units	OrigDataRate	OrigDataStartFrame	OrigNumFrames
100	100	7	27	mm	100	346	553
Frame#	Time	R_Shoulder			L_Shoulder			C7			J_Notch			R_Elbow			L_Elbow			R_Wrist			L_Wrist			R_Asis			L_Asis			R_Psis			L_Psis			Sacral			Thoracic			Sternum			R_Thigh_Lateral			R_Knee_Lateral			R_Shank_Lateral			R_Ankle_Lateral			R_Heel			R_Toe			L_Thigh_Lateral			L_Knee_Lateral			L_Shank_Lateral			L_Ankle_Lateral			L_Heel			L_Toe		
		X1	Y1	Z1	X2	Y2	Z2	X3	Y3	Z3	X4	Y4	Z4	X5	Y5	Z5	X6	Y6	Z6	X7	Y7	Z7	X8	Y8	Z8	X9	Y9	Z9	X10	Y10	Z10	X11	Y11	Z11	X12	Y12	Z12	X13	Y13	Z13	X14	Y14	Z14	X15	Y15	Z15	X16	Y16	Z16	X17	Y17	Z17	X18	Y18	Z18	X19	Y19	Z19	X20	Y20	Z20	X21	Y21	Z21	X22	Y22	Z22	X23	Y23	Z23	X24	Y24	Z24	X25	Y25	Z25	X26	Y26	Z26	X27	Y27	Z27
346	3.45000000	-245.006424	1238.271118	373.328796	-233.146225	1249.740479	34.362209	-284.657440	1309.502686	203.828674	-166.516693	1196.564209	212.685852	-350.735168	961.254089	399.063995	-297.358246	959.308838	-18.295383	-161.969994	906.193542	384.308365	-210.766106	770.413483	-47.145824	-214.390915	871.664856	338.823181	-200.799744	830.901978	97.899757	-380.253357	879.656982	261.941345	-383.786072	861.369568	174.195419	-382.019714	870.513275	218.068382	-331.211639	1008.702942	192.573547	-139.592407	1015.764404	200.508911	-240.734970	643.024414	431.264557	-238.713058	411.517395	342.155609	-261.312592	281.244202	406.713898	-254.679108	73.966499	329.398743	-304.095642	50.147434	284.846619	-142.276794	43.128784	325.100555	-290.303406	568.165283	11.028934	-290.558380	372.059967	99.838387	-361.534149	259.921997	28.698433	-486.380615	82.048538	73.660805	-540.350891	73.892632	106.371895	-377.862640	36.569004	104.197578
347	3.46000000	-240.434647	1238.028442	375.696838	-228.348877	1249.627930	36.809669	-280.022186	1309.448730	206.208008	-162.052597	1196.030273	215.075958	-347.286255	961.620178	401.316956	-293.611145	959.549438	-16.018904	-159.145615	905.782227	386.979111	-206.128120	770.716461	-44.675552	-212.128036	872.163879	340.927460	-197.564438	830.640198	100.061478	-377.483246	880.300354	263.665161	-381.016785	862.023376	175.845322	-379.250015	871.161865	219.755241	-327.835022	1009.184875	194.688324	-135.771133	1015.155090	202.864929	-240.412781	642.672546	433.092834	-238.187439	411.285858	343.410461	-260.872772	281.034973	407.734070	-254.667511	73.822311	330.010010	-304.218689	49.987144	285.524323	-142.335510	43.277924	325.376099	-286.141998	568.284424	12.517089	-284.316467	371.654602	100.370514	-356.782898	260.876678	29.153301	-484.599365	84.908043	72.805496	-538.708496	77.789635	105.129890	-377.793945	36.451107	104.318954
348	3.47000000	-235.879639	1237.788696	378.043732	-223.545090	1249.497803	39.240242	-275.385742	1309.398560	208.564590	-157.600922	1195.475342	217.450958	-343.938812	962.031189	403.565552	-289.912964	959.782959	-13.732449	-156.475990	905.328033	389.693314	-201.511322	771.010132	-42.162416	-209.965561	872.686401	343.013184	-194.391479	830.398804	102.195923	-374.773102	880.938965	265.345673	-378.323273	862.684570	177.451675	-376.548187	871.811768	221.398674	-324.539734	1009.687439	196.801865	-132.003006	1014.520142	205.215118	-240.131195	642.306885	434.842529	-237.669418	411.071320	344.618927	-260.466400	280.823456	408.676910	-254.648056	73.684967	330.558716	-304.322296	49.824471	286.087463	-142.393906	43.410683	325.611023	-281.785431	568.442078	13.892455	-277.756531	371.332581	100.781250	-351.735352	261.912415	29.549009	-482.605774	88.046440	71.963890	-536.827332	82.101295	103.880280	-377.760315	36.385902	104.501488
349	3.48000000	-231.344986	1237.549438	380.365051	-218.743027	1249.347412	41.648872	-270.754547	1309.348877	210.894424	-153.166183	1194.899292	219.805374	-340.687592	962.479370	405.806549	-286.265533	960.004150	-11.438608	-153.943855	904.829590	392.441971	-196.921768	771.289581	-39.608693	-207.897949	873.225952	345.075745	-191.281372	830.175476	104.298500	-372.120972	881.568665	266.981140	-375.704987	863.347961	179.013382	-373.912979	872.458313	222.997261	-321.317596	1010.201111	198.910294	-128.289948	1013.859497	207.553528	-239.874023	641.926208	436.509064	-237.159149	410.869232	345.777802	-260.093292	280.605988	409.541443	-254.623734	73.550278	331.043060	-304.408142	49.655869	286.536957	-142.454376	43.524887	325.805145	-277.226685	568.638855	15.147079	-270.880981	371.102661	101.066795	-346.384766	263.027222	29.881554	-480.379578	91.458336	71.153076	-534.684814	86.823311	102.647713	-377.733124	36.391346	104.743042
350	3.49000000	-226.834320	1237.308228	382.656250	-213.950424	1249.174561	44.030350	-266.134827	1309.296387	213.193314	-148.752747	1194.302002	222.133728	-337.526794	962.956604	408.036072	-282.669617	960.207886	-9.140634	-151.530853	904.286499	395.214767	-192.364929	771.549988	-37.017368	-205.919357	873.776184	347.110596	-188.234024	829.967651	106.364639	-369.524628	882.185486	268.569580	-373.160858	864.008362	180.529282	-371.342743	873.096924	224.549431	-318.160187	1010.716980	201.008926	-124.633476	1013.173523	209.874146	-239.626312	641.530029	438.089203	-236.656540	410.675354	346.884613	-259.752563	280.379761	410.328094	-254.597244	73.414604	331.462769	-304.477753	49.478786	286.876190	-142.518890	43.619122	325.959167	-272.463867	568.875732	16.274359	-263.695831	370.973450	101.224548	-340.726288	264.218140	30.147318	-477.898468	95.130531	70.390556	-532.257141	91.938446	101.459358	-377.672211	36.485435	105.037941
351	3.50000000	-222.351242	1237.062622	384.912720	-209.174530	1248.977051	46.379307	-261.532623	1309.238037	215.456772	-144.364731	1193.683838	224.430435	-334.450165	963.454712	410.249542	-279.124939	960.389160	-6.842441	-149.218002	903.699158	398.000092	-187.845596	771.786499	-34.392167	-204.023712	874.330566	349.113190	-185.248825	829.772583	108.389839	-366.981750	882.785645	270.109039	-370.689209	864.660706	181.998093	-368.835480	873.723175	226.053566	-315.059082	1011.226501	203.092300	-121.034630	1012.462769	212.170898	-239.374466	641.118958	439.581146	-236.161285	410.485962	347.937683	-259.442413	280.142822	411.038727	-254.570892	73.274925	331.818878	-304.532684	49.291641	287.110748	-142.588974	43.692703	326.074707	-267.500763	569.154297	17.269197	-256.210724	370.953064	101.253174	-334.757172	265.481171	30.343168	-475.137970	99.041252	69.693634	-529.519592	97.415062	100.344299	-377.525177	36.685410	105.376762
352	3.51000000	-217.899307	1236.810547	387.129547	-204.422058	1248.752808	48.690235	-256.953735	1309.171021	217.680084	-140.006073	1193.045044	226.689972	-331.451172	963.965454	412.441803	-275.630219	960.543213	-4.548604	-146.986031	903.068787	400.785095	-183.367920	771.994690	-31.737546	-202.204803	874.883118	351.078949	-182.324585	829.587524	110.369652	-364.489777	883.365601	271.597382	-368.287872	865.299988	183.418396	-366.388824	874.332794	227.507889	-312.006134	1011.722046	205.154236	-117.494057	1011.727966	214.437698	-239.106445	640.694336	440.984222	-235.672867	410.297607	348.935913	-259.160339	279.894012	411.676453	-254.546631	73.128777	332.113770	-304.574341	49.093769	287.248077	-142.665741	43.745586	326.154022	-262.347229	569.476196	18.128136	-248.438995	371.049072	101.152695	-328.476807	266.811127	30.466562	-472.071075	103.159683	69.078896	-526.445740	103.206184	99.332733	-377.227264	37.006844	105.746315
